<?xml version="1.0" standalone="no"?>
<!DOCTYPE svg PUBLIC "-//W3C//DTD SVG 20010904//EN"
 "http://www.w3.org/TR/2001/REC-SVG-20010904/DTD/svg10.dtd">
<svg version="1.0" xmlns="http://www.w3.org/2000/svg"
 width="330.000000pt" height="330.000000pt" viewBox="0 0 330.000000 330.000000"
 preserveAspectRatio="xMidYMid meet">
<metadata>
Created by potrace 1.11, written by Peter Selinger 2001-2013
</metadata>
<g transform="translate(0.000000,330.000000) scale(0.100000,-0.100000)"
fill="#000000" stroke="none">
<path d="M0 1650 l0 -1650 1650 0 1650 0 0 1650 0 1650 -1650 0 -1650 0 0
-1650z m1710 1220 c0 -13 -7 -20 -20 -20 -11 0 -20 -6 -20 -14 0 -9 -8 -12
-24 -9 -29 6 -43 -22 -19 -36 23 -13 2 -37 -40 -47 -46 -10 -63 -23 -111 -84
-24 -30 -63 -66 -86 -80 -23 -14 -55 -35 -71 -48 l-29 -24 24 -31 c41 -53 42
-79 7 -120 -17 -19 -31 -40 -31 -46 0 -6 -4 -11 -8 -11 -5 0 -37 -27 -71 -60
l-62 -59 30 -58 c37 -71 61 -138 61 -169 0 -41 39 -74 90 -76 25 0 56 5 69 11
38 21 101 16 161 -11 49 -22 94 -37 155 -52 29 -6 163 -67 208 -94 21 -12 49
-22 62 -22 14 0 32 -11 44 -27 23 -28 23 -29 40 5 25 47 111 63 142 26 7 -9
32 -14 70 -14 70 0 95 -19 105 -80 8 -50 29 -52 48 -5 16 36 67 75 101 75 33
0 80 -35 98 -73 33 -69 10 -189 -42 -217 -28 -14 -77 -12 -110 5 -27 14 -61
68 -61 97 0 8 -3 17 -6 21 -6 6 -52 -7 -99 -29 -16 -7 -95 -38 -174 -69 -164
-63 -286 -124 -340 -169 -21 -17 -87 -66 -148 -110 l-110 -79 23 -41 c42 -73
24 -177 -40 -236 -23 -21 -38 -25 -86 -25 -48 0 -63 4 -85 25 -36 33 -55 79
-55 135 0 42 -2 46 -36 60 l-36 15 -37 -41 c-30 -34 -44 -42 -81 -46 -62 -6
-102 20 -126 82 -15 41 -16 54 -5 94 15 59 38 90 83 113 47 24 103 12 141 -32
29 -32 59 -38 102 -18 26 12 33 34 13 40 -7 3 3 19 25 42 20 20 37 41 37 46 0
5 -15 13 -32 18 -27 7 -34 15 -42 47 -6 25 -5 44 2 56 6 9 8 27 4 40 -5 19
-53 107 -68 128 -8 10 -94 -35 -129 -68 -63 -59 -146 -121 -169 -126 -76 -15
-94 -13 -142 15 -36 20 -59 44 -84 86 -34 57 -35 62 -35 159 0 99 0 100 -27
113 l-27 13 16 40 c8 22 13 43 9 46 -3 4 0 16 7 27 8 12 19 50 26 85 17 88 43
151 93 224 23 34 50 74 60 89 10 15 18 35 18 44 0 22 38 84 64 107 12 9 40 26
64 37 24 11 57 31 73 44 16 14 46 28 67 32 53 9 100 39 152 96 25 27 77 69
115 92 51 31 71 49 73 67 5 34 18 45 37 29 13 -11 21 -9 48 17 45 43 66 52
115 53 35 0 42 -3 42 -20z m-392 -25 c16 -13 32 -22 36 -18 3 3 26 9 51 13
l46 7 -7 -31 c-9 -44 -12 -47 -42 -44 -20 2 -29 -3 -39 -24 -19 -37 -50 -45
-74 -19 -26 28 -46 17 -99 -53 -41 -54 -49 -79 -28 -92 13 -8 -14 -22 -46 -23
-13 -1 -16 3 -9 12 14 19 35 88 29 94 -3 3 -13 0 -22 -7 -13 -11 -17 -11 -24
-1 -5 9 -10 10 -14 2 -4 -6 -2 -11 5 -11 7 0 -9 -21 -35 -46 -49 -48 -55 -71
-18 -66 34 5 26 -5 -25 -34 -27 -15 -62 -38 -80 -51 -27 -20 -35 -22 -52 -11
-17 10 -24 9 -46 -12 -29 -27 -101 -149 -135 -228 -15 -34 -20 -62 -17 -81 4
-21 0 -37 -14 -55 -16 -20 -18 -30 -10 -40 9 -10 8 -15 -3 -19 -8 -3 -19 -25
-24 -49 -7 -32 -10 -36 -11 -16 -1 15 -6 30 -11 33 -6 4 -1 14 11 24 23 18 19
41 -7 41 -18 0 -18 16 1 32 39 33 45 41 51 76 4 20 26 76 50 124 44 88 53 121
34 133 -25 15 -7 35 45 50 45 14 63 26 112 81 42 46 62 62 75 58 13 -4 18 0
18 15 0 12 4 21 9 21 5 0 32 19 59 43 28 23 84 60 124 83 71 39 73 41 72 77
-2 45 20 49 64 12z m-514 0 c-4 -8 -12 -15 -19 -15 -7 0 -18 -15 -25 -32 -22
-60 -32 -76 -95 -153 -57 -71 -147 -155 -165 -155 -12 0 8 78 35 138 18 39 29
52 46 52 16 0 20 5 16 20 -7 26 49 75 141 124 79 42 73 40 66 21z m1738 -15
c86 -40 181 -140 171 -179 -3 -13 2 -23 15 -30 19 -10 51 -105 39 -117 -9 -10
-122 103 -195 196 -41 52 -89 110 -106 129 l-31 34 32 -6 c17 -4 51 -15 75
-27z m-737 11 c76 -17 199 -52 225 -66 14 -7 36 -18 50 -24 14 -6 37 -19 51
-29 14 -9 50 -32 80 -49 62 -37 179 -147 179 -169 0 -7 5 -14 11 -14 17 0 86
-74 94 -101 5 -13 19 -38 32 -56 14 -18 37 -69 53 -115 15 -45 34 -87 42 -92
7 -6 14 -33 15 -61 1 -27 5 -108 9 -178 3 -71 3 -148 0 -172 l-7 -43 -29 16
c-30 17 -30 18 -31 112 0 52 -4 117 -8 143 -4 26 -5 44 0 40 4 -4 9 -17 11
-28 2 -11 10 -20 18 -20 22 0 26 78 6 107 -9 12 -16 35 -16 51 0 34 -37 87
-62 87 -10 0 -18 5 -18 10 0 6 6 10 14 10 7 0 18 6 24 13 15 17 -27 99 -72
143 -17 17 -43 45 -58 61 -24 26 -36 31 -97 37 -110 11 -114 3 -38 -86 48 -56
72 -95 91 -150 49 -132 51 -136 80 -131 15 3 26 1 26 -6 0 -6 -8 -11 -18 -11
-28 0 -31 -7 -17 -48 7 -21 13 -100 14 -183 2 -121 -1 -148 -14 -159 -8 -7
-15 -10 -16 -6 -3 17 -2 44 5 76 9 47 -18 245 -35 256 -5 3 -9 15 -9 26 0 19
-4 20 -52 14 -29 -4 -80 -9 -113 -12 -86 -6 -41 10 72 26 88 13 91 14 78 34
-7 12 -16 41 -19 65 -8 53 -45 120 -100 181 -23 25 -51 57 -63 73 -18 24 -28
27 -77 27 -31 0 -56 5 -56 10 0 6 20 10 45 10 25 0 45 4 45 9 0 11 -51 52 -90
73 -14 7 -54 33 -89 58 -132 93 -204 132 -233 126 -26 -5 -28 -4 -22 19 5 22
3 25 -20 25 -16 0 -26 6 -26 15 0 8 6 15 13 15 6 0 23 12 36 25 25 27 28 28
86 16z m-160 -136 c30 -2 41 -8 45 -22 3 -11 33 -44 68 -72 34 -29 79 -74 100
-101 20 -27 49 -54 65 -61 20 -8 26 -17 22 -30 -4 -12 5 -35 23 -61 32 -48
106 -190 117 -227 11 -37 44 -89 62 -95 14 -6 14 -8 -2 -26 -16 -18 -16 -24
-2 -92 18 -87 22 -162 8 -154 -5 4 -12 19 -16 35 -3 16 -12 35 -20 41 -7 6
-11 22 -9 38 8 44 6 60 -8 89 -12 24 -19 28 -56 27 -48 -1 -56 14 -12 22 51
11 55 26 25 91 -42 91 -66 135 -101 183 -18 25 -39 62 -47 83 -9 20 -23 37
-31 37 -8 0 -24 19 -35 43 -22 45 -112 131 -195 187 -38 26 -55 31 -86 28 -22
-2 -40 0 -40 4 0 15 54 48 69 42 9 -4 34 -8 56 -9z m1115 5 c0 -5 -2 -10 -4
-10 -3 0 -8 5 -11 10 -3 6 -1 10 4 10 6 0 11 -4 11 -10z m-2261 -47 c-21 -51
-99 -323 -93 -323 6 0 185 152 231 196 37 36 43 39 43 20 -1 -30 -32 -94 -69
-141 -52 -64 -235 -218 -239 -200 -2 8 -10 15 -19 15 -13 0 -15 14 -9 108 10
159 30 231 82 300 20 26 78 72 91 72 1 0 -7 -21 -18 -47z m2311 22 c7 -8 10
-22 6 -30 -7 -18 30 -59 45 -50 33 21 72 -199 62 -344 l-6 -73 -24 31 c-14 17
-69 67 -124 111 -104 85 -139 124 -162 181 -35 84 -33 84 87 -11 63 -50 124
-103 135 -118 l20 -27 1 25 c0 35 -34 174 -60 243 -20 53 -20 77 -1 77 5 0 14
-7 21 -15z m-1382 -142 c5 -10 15 -44 22 -76 7 -32 24 -69 37 -83 19 -21 29
-24 60 -18 37 6 179 39 217 51 11 3 16 1 12 -5 -3 -6 -32 -18 -64 -27 -31 -9
-65 -21 -74 -26 -10 -5 -35 -9 -57 -9 -57 0 -71 -8 -71 -41 0 -17 -10 -43 -22
-60 l-22 -29 -12 27 c-8 19 -8 32 -1 41 7 9 5 18 -7 30 -16 16 -19 16 -56 -5
-46 -27 -82 -31 -74 -8 4 8 17 15 30 15 34 0 61 31 58 66 -1 16 -12 54 -23 84
l-21 55 22 17 c29 22 35 22 46 1z m1575 -101 c20 -37 43 -98 53 -135 16 -64
16 -69 -1 -87 -17 -19 -17 -20 0 -26 15 -6 17 -16 11 -66 -3 -33 -10 -67 -15
-75 -7 -14 -10 -13 -20 5 -7 13 -17 19 -26 16 -9 -4 -15 0 -15 7 0 11 -2 11
-9 0 -10 -16 4 -46 33 -71 18 -15 18 -20 5 -61 -8 -26 -20 -44 -29 -44 -15 0
-16 8 -4 58 6 26 4 28 -17 25 -17 -2 -27 -13 -34 -34 l-10 -32 -33 49 c-17 27
-32 53 -32 58 0 20 22 22 35 5 13 -18 14 -18 20 -2 5 11 -5 36 -25 69 -17 28
-28 54 -25 58 9 8 53 -46 76 -94 l19 -40 0 35 c0 51 14 68 33 40 8 -12 18 -17
21 -12 8 13 -17 63 -29 58 -5 -2 -10 7 -10 20 0 13 3 24 8 24 4 0 7 7 7 15 0
8 -3 15 -7 15 -5 0 -7 38 -5 85 3 79 -5 144 -23 188 -4 9 -3 17 3 17 5 0 26
-30 45 -68z m-2711 -28 c-3 -31 1 -104 8 -161 7 -58 13 -139 13 -179 0 -41 2
-72 4 -70 2 2 14 23 26 47 18 37 28 45 57 49 33 5 35 7 33 41 -2 32 5 43 61
98 l64 63 -8 -42 c-4 -23 -13 -47 -19 -53 -6 -6 -11 -20 -11 -30 0 -11 -34
-71 -75 -134 -81 -122 -125 -203 -125 -228 0 -36 -21 -9 -48 63 -38 96 -62
222 -62 318 0 64 2 74 18 75 10 0 12 3 5 6 -7 2 -13 12 -13 20 0 11 7 14 24 9
34 -8 41 9 17 36 -12 12 -21 26 -21 32 0 9 48 96 54 96 1 0 1 -25 -2 -56z
m522 -136 c-14 -20 -15 -20 -9 -3 4 11 10 29 13 40 5 17 7 18 10 3 2 -10 -4
-28 -14 -40z m1930 13 c13 -21 43 -54 65 -73 40 -34 40 -34 34 -91 -3 -31 -9
-57 -12 -57 -16 0 -106 172 -126 238 -10 35 12 26 39 -17z m-1239 -71 c-4 -12
-1 -27 5 -35 10 -12 9 -15 -3 -15 -23 0 -29 15 -17 44 11 31 24 35 15 6z
m-1104 -93 c-10 -9 -11 -8 -5 6 3 10 9 15 12 12 3 -3 0 -11 -7 -18z m1122 -13
c2 -13 0 -27 -5 -31 -13 -7 -28 16 -28 44 0 30 26 20 33 -13z m1343 -51 c-11
-11 -19 6 -11 24 8 17 8 17 12 0 3 -10 2 -21 -1 -24z m268 -43 l7 -45 -21 24
c-11 13 -18 31 -15 38 3 8 5 24 5 36 1 35 17 0 24 -53z m-1558 -28 c-4 -29 -1
-53 9 -72 14 -26 14 -29 0 -24 -8 4 -15 10 -15 15 0 6 -9 22 -20 37 -10 15
-22 39 -25 53 -5 21 -2 27 14 32 14 3 21 14 22 29 l0 23 10 -25 c6 -14 8 -44
5 -68z m-1401 -12 c4 -19 31 -96 60 -170 29 -74 56 -151 60 -170 13 -60 18
-57 31 20 10 56 29 108 76 202 35 70 66 127 71 127 32 3 -48 -376 -94 -441
-17 -24 -17 -28 -4 -28 9 0 14 -4 11 -8 -2 -4 -6 -38 -8 -75 l-3 -68 -28 33
c-160 189 -234 403 -203 593 8 53 18 48 31 -15z m2770 -244 c8 -27 15 -65 15
-83 0 -43 16 -35 24 12 8 41 25 52 54 36 22 -12 55 -4 50 11 -3 7 -49 38 -65
44 -2 0 4 22 13 47 18 53 40 61 73 25 24 -25 18 -43 -8 -26 -22 13 -54 3 -49
-14 3 -7 19 -17 37 -22 28 -8 32 -12 26 -35 -12 -51 -75 -173 -118 -229 -43
-54 -86 -100 -88 -91 0 2 -3 34 -5 72 -3 37 -25 138 -50 225 -27 93 -47 187
-50 232 l-6 75 66 -115 c37 -63 73 -137 81 -164z m-991 255 c3 -4 -11 -13 -32
-19 -100 -29 -211 -55 -247 -59 -36 -5 -39 -3 -25 11 9 9 38 20 65 25 110 22
200 42 204 47 7 7 30 4 35 -5z m1171 -20 c3 -5 1 -12 -5 -16 -5 -3 -10 1 -10
9 0 18 6 21 15 7z m-5 -98 c0 -23 -30 -13 -36 11 -9 37 6 54 22 25 7 -13 13
-30 14 -36z m30 48 c0 -6 -4 -13 -10 -16 -5 -3 -10 1 -10 9 0 9 5 16 10 16 6
0 10 -4 10 -9z m-2533 -43 c-3 -8 -6 -5 -6 6 -1 11 2 17 5 13 3 -3 4 -12 1
-19z m2368 -38 c3 -5 1 -10 -4 -10 -6 0 -11 5 -11 10 0 6 2 10 4 10 3 0 8 -4
11 -10z m-2368 -32 c-3 -7 -5 -2 -5 12 0 14 2 19 5 13 2 -7 2 -19 0 -25z m5
-107 c2 -17 1 -28 -4 -25 -8 5 -12 54 -4 54 2 0 6 -13 8 -29z m2202 -136 c1
-22 5 -45 8 -50 22 -36 17 -227 -8 -290 -7 -18 -5 -17 23 5 17 14 36 34 41 46
5 11 44 59 86 107 41 48 98 121 127 163 50 75 71 90 51 37 -6 -15 -13 -49 -17
-74 -14 -110 -149 -306 -210 -306 -18 0 -25 5 -25 19 0 39 -25 11 -26 -30 -1
-32 -7 -45 -30 -65 -46 -37 -125 -89 -130 -85 -2 2 3 36 11 74 7 38 21 145 30
238 14 153 25 225 42 281 5 18 6 18 15 -5 5 -14 10 -43 12 -65z m-2319 -45 c7
-36 16 -96 19 -135 13 -164 37 -308 58 -347 12 -25 4 -23 -66 19 -167 100
-276 202 -325 306 -30 65 -51 146 -51 200 0 30 2 29 36 -30 20 -34 77 -106
126 -160 50 -54 103 -116 118 -138 28 -41 28 -41 8 -57 -19 -16 -20 -18 -3
-34 16 -16 18 -16 41 9 24 26 35 52 12 29 -17 -17 -31 -15 -24 4 3 8 1 25 -5
36 -7 14 -8 23 -1 30 7 7 6 15 -4 25 -19 20 -19 83 1 83 18 0 19 5 3 29 -9 15
-9 41 1 118 16 123 20 136 33 103 5 -14 15 -54 23 -90z m162 -10 c10 -61 -1
-96 -13 -43 -14 64 -15 65 -41 58 l-25 -6 28 25 c16 14 32 26 35 26 3 0 11
-27 16 -60z m508 -10 c-3 -5 7 -24 23 -41 16 -17 46 -65 67 -105 21 -41 42
-74 47 -74 4 0 8 -4 8 -10 0 -5 -8 -10 -19 -10 -10 0 -39 -9 -64 -20 -42 -19
-77 -19 -77 0 0 5 16 14 35 20 30 10 65 42 65 60 0 3 -16 24 -36 45 -62 68
-91 145 -54 145 6 0 8 -4 5 -10z m1223 -48 c-3 -21 -15 -59 -27 -84 -11 -26
-21 -51 -21 -56 0 -5 -7 -15 -15 -22 -14 -12 -45 -66 -45 -79 0 -4 -25 -33
-55 -66 -30 -32 -55 -62 -55 -66 0 -5 -18 -27 -40 -51 -27 -29 -36 -46 -29
-53 7 -7 16 -3 28 12 10 12 37 31 59 43 47 24 132 112 132 135 0 9 22 38 50
65 27 28 58 71 69 96 18 40 24 45 43 40 13 -3 26 -6 30 -6 4 0 -6 -23 -24 -51
-25 -42 -29 -55 -20 -69 9 -15 7 -19 -13 -24 -13 -3 -60 -41 -103 -84 -102
-100 -128 -122 -139 -122 -5 0 -20 -11 -33 -25 -13 -14 -29 -25 -36 -25 -6 0
-17 -7 -24 -15 -6 -8 -41 -28 -76 -46 -73 -35 -124 -74 -124 -94 0 -23 -20
-28 -34 -10 -10 14 -21 16 -57 11 -24 -4 -62 -9 -84 -10 -22 -2 -63 -7 -92
-11 -29 -4 -58 -3 -65 2 -9 5 1 10 27 13 50 6 53 31 6 46 -19 6 -29 14 -24 17
6 4 30 0 53 -8 48 -17 130 -20 130 -5 0 5 -9 14 -21 20 -11 7 -18 14 -16 17 3
2 19 -3 36 -11 16 -9 39 -16 51 -16 19 0 20 4 14 38 -4 20 -13 52 -20 71 -8
18 -14 44 -14 58 0 32 -16 36 -78 20 -52 -13 -92 -38 -92 -56 0 -12 51 -61 62
-61 5 0 8 -5 8 -11 0 -11 -46 13 -85 46 -13 11 -27 32 -30 46 -6 23 -3 27 22
32 54 10 134 36 149 47 8 7 14 22 15 34 l0 21 9 -21 c12 -31 21 -34 66 -23 21
6 64 15 94 21 81 15 82 16 125 168 7 25 16 57 19 71 3 16 15 29 28 32 12 4 23
5 25 3 1 -1 -9 -45 -24 -97 -14 -52 -26 -106 -26 -121 0 -15 -6 -29 -13 -32
-20 -8 -64 -82 -64 -108 0 -13 -9 -38 -20 -56 -63 -103 35 -38 108 73 15 22
35 46 45 53 10 8 17 21 15 30 -2 10 9 27 24 40 15 13 30 33 34 45 11 37 91
170 124 206 16 19 30 41 30 48 0 7 3 13 6 13 4 0 4 -17 2 -38z m-1407 -155 c6
-9 7 -22 4 -27 -7 -11 -55 53 -55 72 0 13 38 -20 51 -45z m1705 21 c-4 -18 -9
-52 -13 -76 -7 -51 -18 -60 -44 -36 -19 17 -19 16 -19 -30 0 -44 2 -47 21 -41
20 7 21 5 15 -31 -12 -66 -35 -129 -66 -178 l-30 -47 42 24 c24 14 49 23 56
20 6 -3 12 1 12 9 0 11 205 138 223 138 3 0 34 27 69 59 35 33 64 56 66 51 2
-4 -11 -35 -27 -68 -31 -61 -144 -192 -167 -192 -6 0 -14 -6 -17 -12 -3 -7
-22 -21 -43 -32 -22 -10 -55 -27 -74 -36 -46 -24 -166 -60 -196 -60 -18 0 -24
5 -24 23 0 13 -5 28 -11 34 -8 8 -5 23 11 53 12 23 43 102 70 175 51 139 77
198 113 252 28 42 41 42 33 1z m-2076 -35 c0 -7 4 -13 8 -13 24 0 137 -269
127 -301 -4 -12 -1 -19 7 -19 7 0 24 -26 37 -58 14 -31 37 -77 53 -101 l29
-43 -48 7 c-134 20 -355 105 -351 134 2 11 -4 15 -17 14 -11 -1 -24 5 -28 13
-4 8 -14 14 -21 14 -8 0 -19 6 -25 14 -8 10 -6 19 9 39 24 30 25 37 6 37 -7 0
-16 9 -19 19 -4 17 3 15 53 -12 55 -30 57 -33 43 -53 -9 -15 -11 -24 -4 -29 6
-3 11 -2 11 3 0 5 12 12 27 15 31 6 82 -17 156 -69 50 -36 67 -43 48 -20 -6 7
-9 20 -6 28 3 8 -8 27 -25 44 -31 30 -55 94 -70 187 -9 51 -24 128 -36 177 -5
24 -5 24 15 6 12 -11 21 -25 21 -33z m138 -8 c-3 -3 -9 2 -12 12 -6 14 -5 15
5 6 7 -7 10 -15 7 -18z m71 -99 c-3 -3 -11 5 -18 17 -13 21 -12 21 5 5 10 -10
16 -20 13 -22z m151 -5 c0 -6 -11 -23 -25 -38 -21 -24 -26 -26 -35 -13 -14 22
-13 25 23 42 17 8 33 16 35 17 1 0 2 -3 2 -8z m-645 -89 c-26 -6 -17 -33 15
-43 34 -12 37 -21 15 -39 -13 -11 -18 -10 -30 6 -29 36 -36 55 -30 74 4 13 -4
29 -24 51 -45 47 -38 46 19 -3 34 -29 45 -44 35 -46z m570 30 c0 -18 -20 -15
-23 4 -3 10 1 15 10 12 7 -3 13 -10 13 -16z m40 -62 c3 -5 1 -10 -4 -10 -6 0
-11 5 -11 10 0 6 2 10 4 10 3 0 8 -4 11 -10z m1522 -62 c-8 -24 -12 -28 -15
-15 -5 23 4 47 17 47 6 0 5 -13 -2 -32z m-1489 -131 c92 -93 93 -93 72 -112
-11 -10 -20 -24 -20 -32 0 -11 -4 -11 -28 1 -40 21 -59 46 -67 88 -7 39 -35
75 -35 45 0 -9 5 -19 10 -22 6 -3 10 -11 10 -17 0 -25 -35 22 -76 104 -24 48
-44 90 -44 93 0 15 94 -63 178 -148z m1426 45 c-4 -20 -6 -45 -5 -54 1 -9 -20
-40 -47 -68 -45 -47 -52 -50 -70 -39 -18 11 -24 10 -40 -5 -23 -20 -34 -53
-21 -61 4 -3 19 1 32 10 33 22 198 36 203 18 14 -48 15 -48 24 -33 5 8 7 22 5
30 -4 13 13 19 83 32 48 10 96 20 106 24 15 6 17 2 14 -32 -3 -34 -9 -40 -51
-61 -43 -22 -172 -53 -218 -53 -12 0 -19 7 -19 20 0 24 -23 35 -47 24 -16 -7
-15 -8 5 -11 35 -7 26 -21 -18 -28 -25 -4 -46 -3 -54 4 -7 6 -26 9 -42 6 -34
-7 -205 35 -206 50 0 6 27 19 60 31 68 24 111 57 227 174 44 44 81 76 83 70 2
-6 1 -28 -4 -48z m-1124 -25 c0 -29 -7 -37 -26 -30 -17 6 -18 40 -1 46 23 10
27 7 27 -16z m1508 -74 c-8 -10 -18 -26 -21 -36 -4 -10 -11 -16 -16 -12 -5 3
-12 1 -16 -5 -7 -12 -25 -4 -25 11 0 6 4 8 9 5 5 -3 23 8 41 24 35 33 52 40
28 13z m-2263 -23 c8 -13 160 -60 195 -60 23 0 30 -5 35 -30 4 -16 10 -30 15
-30 4 0 10 -12 13 -26 4 -25 3 -26 -32 -19 -44 8 -48 12 -33 27 16 16 16 71 0
66 -7 -3 -14 -15 -16 -29 -6 -51 -9 -52 -72 -18 -52 28 -96 69 -124 117 -8 14
10 17 19 2z m1904 -11 c-16 -10 -23 -4 -14 10 3 6 11 8 17 5 6 -4 5 -9 -3 -15z
m41 11 c0 -5 -5 -10 -11 -10 -5 0 -7 5 -4 10 3 6 8 10 11 10 2 0 4 -4 4 -10z
m-1340 -66 c38 -2 103 -22 125 -37 17 -13 16 -15 -19 -27 -45 -15 -70 -7 -63
20 3 11 2 20 -3 20 -10 0 -21 -30 -15 -40 3 -5 0 -12 -6 -16 -6 -3 -15 0 -20
7 -7 11 -11 11 -21 -4 -9 -12 -34 -21 -73 -26 -67 -10 -82 -6 -64 15 6 8 9 17
6 20 -10 10 -27 -6 -27 -27 0 -24 -17 -25 -42 -2 -15 13 -21 14 -27 5 -4 -7
-24 -15 -45 -19 l-37 -6 3 34 c2 24 8 34 20 34 31 0 30 13 -1 20 -51 11 -25
28 32 21 130 -18 227 -11 227 16 0 5 6 6 13 1 6 -4 23 -8 37 -9z m443 -53 c8
-8 7 -11 -2 -11 -7 0 -18 -6 -26 -13 -14 -14 -38 -15 -68 -2 -13 5 -27 -1 -50
-22 -18 -16 -66 -52 -107 -80 -165 -111 -257 -140 -350 -111 -29 9 -38 17 -37
32 1 10 -4 21 -10 23 -7 3 -13 -2 -13 -11 0 -22 -26 -20 -51 5 -11 11 -23 18
-27 15 -6 -7 -52 33 -52 46 0 12 27 10 42 -5 23 -22 152 -12 248 19 47 16 93
28 102 29 9 0 26 8 37 17 32 27 62 40 82 35 10 -3 19 -1 19 4 0 36 231 62 263
30z m379 -6 c44 -14 55 -21 47 -31 -6 -7 -18 -10 -26 -7 -14 5 -15 0 -10 -36
5 -42 5 -42 -16 -27 -80 59 -103 70 -150 77 -29 4 -56 3 -60 -1 -5 -4 39 -39
97 -79 114 -77 133 -96 91 -85 -21 5 -27 3 -32 -14 -4 -19 -13 -14 -80 43 -87
74 -158 119 -174 109 -7 -4 -10 1 -7 12 2 11 25 27 58 41 45 19 69 23 130 20
41 -2 101 -12 132 -22z m-349 -45 c-3 -17 -21 -36 -51 -55 -25 -16 -74 -56
-109 -88 -40 -38 -63 -53 -63 -43 0 11 -9 16 -30 16 -16 0 -30 3 -30 8 1 12
115 91 118 81 2 -5 11 -9 19 -9 12 0 13 3 4 14 -9 10 2 21 51 52 58 36 91 53
95 50 1 0 -1 -12 -4 -26z m467 -15 c0 -8 -2 -15 -4 -15 -2 0 -6 7 -10 15 -3 8
-1 15 4 15 6 0 10 -7 10 -15z m-47 -33 c-10 -7 -17 -18 -15 -23 1 -5 -2 -9 -8
-9 -7 0 -8 40 -1 68 1 1 10 -3 21 -10 19 -12 19 -14 3 -26z m129 -4 c3 -21 9
-23 63 -24 85 -2 194 -12 205 -19 6 -3 10 -15 10 -25 0 -55 -253 -68 -359 -19
l-55 25 24 22 c13 12 37 22 53 22 20 0 30 6 34 20 7 27 21 25 25 -2z m361 -29
c-28 -29 -53 -32 -53 -8 0 10 55 38 75 39 5 0 -4 -14 -22 -31z"/>
<path d="M1047 1823 c-23 -21 -44 -39 -46 -40 -3 -2 0 -8 7 -15 8 -8 15 -8 24
-1 7 6 35 18 61 28 52 19 59 41 19 56 -18 7 -30 2 -65 -28z"/>
<path d="M1470 1669 c0 -5 21 -31 48 -57 42 -42 117 -86 210 -122 17 -7 32
-16 32 -19 0 -4 6 -15 13 -24 11 -16 16 -16 67 4 30 11 59 24 63 29 13 12 -40
89 -66 94 -12 3 -38 7 -57 9 -54 7 -190 45 -235 66 -59 27 -75 32 -75 20z"/>
<path d="M2536 1581 c-4 -7 -5 -15 -2 -18 9 -9 19 4 14 18 -4 11 -6 11 -12 0z"/>
<path d="M2530 1510 c0 -5 5 -10 11 -10 5 0 7 5 4 10 -3 6 -8 10 -11 10 -2 0
-4 -4 -4 -10z"/>
<path d="M1513 1454 c7 -42 23 -64 47 -64 11 0 20 -10 24 -30 6 -33 21 -37 50
-15 18 13 18 17 5 42 -15 28 -103 103 -121 103 -7 0 -8 -14 -5 -36z"/>
<path d="M1115 1119 c-4 -6 0 -18 9 -27 15 -15 16 -15 16 5 0 25 -15 38 -25
22z"/>
<path d="M1240 1100 c0 -5 5 -10 10 -10 6 0 10 5 10 10 0 6 -4 10 -10 10 -5 0
-10 -4 -10 -10z"/>
<path d="M1285 1059 c-10 -15 1 -23 20 -15 9 3 13 10 10 16 -8 13 -22 13 -30
-1z"/>
<path d="M1077 1026 c-4 -9 -2 -18 3 -21 13 -8 41 6 37 19 -6 17 -34 19 -40 2z"/>
<path d="M1457 993 c-10 -10 -8 -43 2 -43 9 0 21 24 21 41 0 11 -14 12 -23 2z"/>
<path d="M1410 874 c0 -8 5 -12 10 -9 6 3 10 10 10 16 0 5 -4 9 -10 9 -5 0
-10 -7 -10 -16z"/>
<path d="M936 2545 c-9 -13 -16 -27 -16 -30 0 -12 29 -3 51 16 19 17 21 22 9
29 -22 14 -26 13 -44 -15z"/>
<path d="M520 2544 c0 -31 23 -28 28 4 2 15 -2 22 -12 22 -11 0 -16 -9 -16
-26z"/>
<path d="M1716 2802 c-10 -16 102 -46 128 -34 l21 9 -21 11 c-31 16 -120 26
-128 14z"/>
<path d="M1883 2759 c-18 -5 -35 -13 -38 -18 -6 -10 46 -51 65 -51 19 0 118
-68 213 -147 l89 -73 85 0 86 0 -44 48 c-23 26 -70 62 -103 80 -34 19 -81 46
-106 62 -69 43 -173 97 -195 103 -11 3 -34 1 -52 -4z"/>
<path d="M2122 1861 c4 -13 18 -16 19 -4 0 4 -5 9 -11 12 -7 2 -11 -2 -8 -8z"/>
<path d="M416 2603 c-10 -10 -7 -61 4 -68 6 -3 10 3 10 14 0 11 5 23 10 26 6
3 10 10 10 15 0 10 -26 20 -34 13z"/>
<path d="M387 2490 c6 -24 26 -21 31 3 2 11 -3 17 -16 17 -15 0 -19 -5 -15
-20z"/>
<path d="M2857 2343 c-13 -12 -7 -43 8 -43 9 0 15 9 15 25 0 24 -10 32 -23 18z"/>
<path d="M3023 2264 c-3 -8 -1 -20 6 -27 8 -8 11 -4 11 16 0 30 -7 35 -17 11z"/>
<path d="M3010 2174 c0 -9 5 -14 12 -12 18 6 21 28 4 28 -9 0 -16 -7 -16 -16z"/>
<path d="M252 2238 c3 -7 13 -15 22 -16 12 -3 17 1 14 10 -3 7 -13 15 -22 16
-12 3 -17 -1 -14 -10z"/>
<path d="M210 1800 c0 -5 5 -10 10 -10 6 0 10 5 10 10 0 6 -4 10 -10 10 -5 0
-10 -4 -10 -10z"/>
<path d="M210 1760 c0 -5 5 -10 10 -10 6 0 10 5 10 10 0 6 -4 10 -10 10 -5 0
-10 -4 -10 -10z"/>
<path d="M250 1640 c0 -5 7 -10 15 -10 8 0 15 5 15 10 0 6 -7 10 -15 10 -8 0
-15 -4 -15 -10z"/>
<path d="M225 1620 c-3 -5 -1 -10 4 -10 6 0 11 5 11 10 0 6 -2 10 -4 10 -3 0
-8 -4 -11 -10z"/>
<path d="M3036 1421 c-4 -7 -5 -15 -2 -18 9 -9 19 4 14 18 -4 11 -6 11 -12 0z"/>
<path d="M2780 1395 c-19 -23 -1 -39 21 -19 10 9 19 21 19 26 0 13 -27 9 -40
-7z"/>
<path d="M2810 1191 c0 -15 29 -45 36 -38 4 3 -3 16 -15 28 -12 13 -21 17 -21
10z"/>
<path d="M342 1274 c1 -9 9 -19 16 -22 9 -3 13 2 10 14 -1 9 -9 19 -16 22 -9
3 -13 -2 -10 -14z"/>
<path d="M503 1250 c-3 -11 -9 -20 -14 -20 -5 0 -9 -4 -9 -10 0 -5 7 -10 15
-10 8 0 15 7 15 15 0 8 5 15 10 15 6 0 10 7 10 15 0 22 -21 18 -27 -5z"/>
<path d="M380 1180 c0 -5 5 -10 10 -10 6 0 10 5 10 10 0 6 -4 10 -10 10 -5 0
-10 -4 -10 -10z"/>
<path d="M1898 1092 c-70 -25 -72 -30 -54 -102 9 -34 22 -68 30 -76 8 -7 16
-19 19 -26 15 -43 107 103 110 175 2 40 1 42 -28 44 -16 1 -51 -6 -77 -15z"/>
<path d="M2857 1031 c-29 -35 -33 -76 -7 -76 9 0 15 9 15 25 0 14 6 30 14 36
7 6 12 19 10 29 -4 16 -8 14 -32 -14z"/>
<path d="M2780 970 c0 -11 7 -20 15 -20 8 0 15 9 15 20 0 11 -7 20 -15 20 -8
0 -15 -9 -15 -20z"/>
<path d="M2730 920 c0 -5 5 -10 10 -10 6 0 10 5 10 10 0 6 -4 10 -10 10 -5 0
-10 -4 -10 -10z"/>
<path d="M644 1074 c3 -9 6 -18 6 -20 0 -2 5 -4 10 -4 6 0 10 9 10 20 0 12 -7
20 -16 20 -11 0 -14 -5 -10 -16z"/>
<path d="M680 1021 c0 -6 5 -13 10 -16 6 -3 10 1 10 9 0 9 -4 16 -10 16 -5 0
-10 -4 -10 -9z"/>
<path d="M892 895 c0 -16 2 -22 5 -12 2 9 2 23 0 30 -3 6 -5 -1 -5 -18z"/>
<path d="M1237 595 c-23 -17 -21 -22 9 -29 27 -7 54 7 54 29 0 16 -41 16 -63
0z"/>
<path d="M1575 610 c-3 -5 -1 -10 4 -10 6 0 11 5 11 10 0 6 -2 10 -4 10 -3 0
-8 -4 -11 -10z"/>
</g>
</svg>
